<?xml version="1.0" standalone="no"?>
<!DOCTYPE svg PUBLIC "-//W3C//DTD SVG 20010904//EN"
 "http://www.w3.org/TR/2001/REC-SVG-20010904/DTD/svg10.dtd">
<svg version="1.0" xmlns="http://www.w3.org/2000/svg"
 width="1186.000000pt" height="1186.000000pt" viewBox="0 0 1186.000000 1186.000000"
 preserveAspectRatio="xMidYMid meet">

<g transform="translate(0.000000,1186.000000) scale(0.100000,-0.100000)"
fill="#000000" stroke="none">
<path d="M8115 11851 c-11 -5 -28 -17 -38 -28 -9 -11 -64 -161 -122 -334 -139
-414 -184 -502 -327 -634 -115 -107 -191 -144 -554 -265 -180 -60 -338 -117
-351 -126 -38 -24 -57 -78 -43 -120 7 -19 22 -41 34 -49 13 -9 164 -62 336
-120 406 -136 478 -173 616 -317 124 -128 154 -191 294 -610 110 -333 118
-348 186 -348 47 0 83 19 101 54 9 17 62 168 118 336 57 168 117 335 135 370
66 130 171 248 292 327 91 59 119 70 472 189 170 57 320 111 332 119 48 31 48
120 0 161 -15 13 -156 66 -347 129 -403 135 -477 172 -610 311 -118 123 -139
166 -279 579 -109 323 -117 341 -149 362 -35 24 -62 28 -96 14z"/>
<path d="M2910 11109 c-34 -14 -69 -47 -87 -84 -9 -16 -87 -241 -173 -500 -86
-258 -174 -504 -195 -545 -120 -240 -334 -453 -574 -574 -52 -25 -278 -107
-559 -200 -259 -87 -485 -167 -503 -179 -54 -37 -74 -72 -74 -132 0 -60 20
-95 74 -132 18 -12 243 -92 501 -178 262 -87 508 -176 557 -200 238 -117 449
-326 573 -568 31 -62 99 -249 204 -564 87 -260 167 -486 179 -504 12 -18 34
-41 48 -52 36 -26 108 -33 145 -14 71 37 76 49 243 548 87 261 175 510 195
553 111 242 336 474 576 595 63 32 255 101 567 205 260 87 486 167 504 179 54
37 74 72 74 132 0 60 -20 95 -74 132 -18 12 -243 92 -500 178 -257 85 -501
172 -542 191 -173 83 -355 233 -474 393 -111 148 -148 235 -319 748 -87 260
-167 486 -179 504 -12 18 -34 41 -48 52 -31 23 -103 31 -139 16z"/>
<path d="M5836 7395 c-52 -18 -106 -64 -133 -111 -13 -21 -140 -390 -283 -819
-164 -493 -280 -822 -313 -895 -207 -449 -552 -800 -1002 -1021 -119 -58 -259
-108 -934 -334 -468 -156 -811 -275 -833 -290 -82 -54 -131 -180 -108 -275 16
-67 64 -135 115 -166 24 -13 391 -141 816 -283 426 -142 824 -280 884 -307
366 -164 691 -443 918 -789 136 -208 179 -316 462 -1167 194 -581 271 -802
293 -832 41 -57 136 -106 206 -106 96 0 187 49 231 125 14 24 142 391 284 817
142 425 280 823 307 883 176 392 489 742 860 960 176 104 306 153 1099 418
487 162 795 269 820 286 22 15 54 50 71 79 53 88 55 176 5 268 -50 93 -38 88
-908 378 -681 227 -820 277 -938 335 -348 172 -621 410 -839 734 -153 229
-180 294 -472 1169 -144 433 -273 807 -286 830 -27 50 -94 103 -146 118 -51
14 -129 12 -176 -5z"/>
</g>
</svg>
